<svg width="48" height="48" viewBox="0 0 48 48" fill="none" xmlns="http://www.w3.org/2000/svg">
<path fill-rule="evenodd" clip-rule="evenodd" d="M36.8314 37.5944C34.9882 39.7718 32.6982 41.5445 30.0839 42.721C27.0303 44.0957 23.6063 44.5246 20.034 43.8752C15.1436 42.9864 10.6566 40.2717 7.34411 36.101C3.91555 31.7855 2.21785 26.5028 3.34811 20.7453C4.68748 13.9739 8.6973 9.10984 13.3529 6.3811C16.9776 4.25605 20.9432 3.66918 24.556 4.1654C27.0947 4.5149 29.4382 5.40642 31.5274 6.5409C33.3955 7.5539 35.1125 8.81267 36.5928 10.2135C38.1855 11.7386 39.4595 13.4048 40.4341 15.0888C41.2945 16.5756 42.0001 18.2128 42.5564 19.9033C43.2584 22.0499 43.7401 24.2936 43.9999 26.5364C43.9999 26.6588 43.999 26.7729 43.9971 26.8775C43.9852 26.7897 43.975 26.7009 43.9677 26.6093C43.7807 24.9581 43.4776 23.2956 43.052 21.6808C42.6366 20.1005 42.0821 18.5315 41.3783 17.0082C40.7629 15.6943 40.015 14.4206 39.1399 13.2431C38.2371 12.0264 37.1824 10.8723 35.9969 9.82474C34.3811 8.39869 32.4568 7.07637 30.3409 6.10262C27.9256 4.99056 25.1198 4.24296 21.9915 4.485C18.679 4.74105 15.443 6.1372 12.6436 8.54634C9.24815 11.4695 6.74167 15.6261 5.76248 20.493C4.7013 25.7599 5.83156 30.8491 8.9193 35.088C11.9232 39.2139 16.2573 42.0202 21.5742 42.7192C24.1673 43.0603 26.7088 42.7285 28.9877 41.9594C31.0456 41.2651 32.8842 40.1886 34.4373 38.9438C36.7918 37.0561 38.5245 34.6722 39.57 32.1388C38.9842 33.9582 38.0639 35.8226 36.8323 37.5953L36.8314 37.5944ZM40.3189 27.0018C40.2738 25.6944 40.0104 24.3525 39.5212 23.2872C39.9892 24.845 40.0979 26.5953 39.8713 28.3157C39.6244 30.181 38.975 32.1388 37.9322 33.8199C36.4915 36.1609 34.3498 38.1242 31.7282 39.4064C28.623 40.924 24.9162 41.3539 21.1542 40.2241C15.5673 38.5448 11.6201 34.7507 9.64517 29.824C7.70613 24.9908 8.16487 19.7931 10.4936 15.0869C12.4768 11.0695 15.4448 8.15105 18.7122 6.58763C21.3881 5.30642 24.2428 5.02047 27.0524 5.53912C29.6344 6.05122 31.8931 7.10534 33.7944 8.36879C35.5105 9.50888 37.0221 10.8863 38.2426 12.3199C40.0647 14.4599 41.4943 17.0952 42.422 19.8258C42.8254 21.0117 43.1423 22.2209 43.3956 23.4357C43.6545 24.6768 43.8424 25.9468 43.9649 27.2261C43.9667 27.2149 43.9695 27.2046 43.9686 27.1952C43.9723 27.1672 43.9778 27.141 43.9787 27.1139C43.9059 26.3748 43.8166 25.6561 43.7033 24.959C43.4537 23.4143 43.1018 21.8555 42.6292 20.3491C42.1659 18.8716 41.5763 17.4035 40.8302 15.9981C40.0739 14.5748 39.1224 13.2095 38.0179 11.9647C36.8545 10.6564 35.4764 9.42851 33.9307 8.35851C31.7346 6.83901 29.1867 5.56715 26.4536 5.0429C23.2074 4.41958 19.4371 4.87936 15.6318 7.40999C12.1176 9.74717 9.43239 13.2824 8.11881 17.4886C6.63666 22.2368 7.12764 27.2756 9.53371 31.8771C11.7169 36.0524 15.0607 39.1335 19.1055 40.7156C22.6732 42.1118 26.4895 42.1248 30.1631 40.7352C33.7796 39.3671 36.5496 36.5879 38.2104 33.8293C39.4632 31.7491 40.19 29.3904 40.3208 26.9999L40.3189 27.0018Z" fill="url(#paint0_linear_154_2)"/>
<path d="M23.8465 11.9896C23.8655 11.3815 23.4105 10.8733 22.8303 10.8547C22.2501 10.8361 21.7644 11.3141 21.7455 11.9223C21.7265 12.5305 22.1815 13.0386 22.7617 13.0572C23.3419 13.0758 23.8276 12.5978 23.8465 11.9896Z" fill="url(#paint1_linear_154_2)"/>
<path d="M17.2853 17.8942C16.7049 17.8755 16.2195 18.354 16.2001 18.9614C16.1817 19.5688 16.6368 20.0772 17.2171 20.0959C17.7974 20.1146 18.2829 19.6361 18.3022 19.0287C18.3216 18.4212 17.8656 17.9129 17.2853 17.8942ZM17.2853 17.8942C16.7049 17.8755 16.2195 18.354 16.2001 18.9614C16.1817 19.5688 16.6368 20.0772 17.2171 20.0959C17.7974 20.1146 18.2829 19.6361 18.3022 19.0287C18.3216 18.4212 17.8656 17.9129 17.2853 17.8942ZM25.4504 11.8704C25.4329 10.891 24.9097 10.0369 24.1378 9.59675C24.0862 9.5631 24.0346 9.53413 23.983 9.51451C23.2737 9.17155 22.3922 9.1622 21.4987 9.67337C21.25 9.81635 21.0344 10.0201 20.8824 10.2715C20.3269 11.1639 20.268 12.0769 20.5278 12.8348C20.6079 13.0656 20.6217 13.3133 20.5757 13.5497C20.5287 13.8001 20.4163 14.0384 20.2533 14.2393L18.8872 15.9196C18.7011 16.1467 18.4607 16.3083 18.1963 16.3868C18.0065 16.4494 17.8011 16.4653 17.6012 16.427C17.0025 16.3074 16.3227 16.4093 15.629 16.8438C15.5001 16.927 15.3831 17.0232 15.279 17.1391C15.2338 17.183 15.1979 17.2279 15.1611 17.2774C15.1205 17.3307 15.0791 17.3933 15.0422 17.4568C15.0376 17.4615 15.0376 17.4709 15.033 17.4746L15.0192 17.5017C14.7751 17.9241 14.648 18.354 14.6047 18.7689C14.5909 18.924 14.5909 19.0791 14.5992 19.2305C14.6056 19.295 14.6121 19.3632 14.624 19.4277C14.6314 19.4782 14.6388 19.5286 14.6498 19.5753C14.6535 19.6071 14.6609 19.6398 14.6683 19.6716C14.6802 19.7221 14.6913 19.7688 14.7069 19.8193C14.7226 19.8791 14.7419 19.9435 14.7668 20.0043C14.8267 20.1706 14.905 20.3332 14.9962 20.4827C14.9999 20.4921 15.0091 20.4968 15.0128 20.5061C15.092 20.6323 15.1749 20.7538 15.2762 20.8622C15.7193 21.3565 16.342 21.6733 17.0439 21.6967L17.5321 21.7126C17.6058 21.7154 17.6804 21.7219 17.7495 21.7331C18.1576 21.806 18.5215 22.0368 18.772 22.3882L19.9474 24.031C20.0856 24.2179 20.175 24.4404 20.2118 24.6665C20.2643 24.9291 20.2431 25.2029 20.1353 25.4506C19.8286 26.1907 19.8304 27.1056 20.3297 28.0316C20.466 28.2877 20.6687 28.5092 20.9082 28.668C20.9681 28.7064 21.0326 28.7456 21.0924 28.7839C21.1569 28.8176 21.2168 28.8521 21.2813 28.8811C21.3458 28.9148 21.4102 28.94 21.471 28.9652C23.2682 29.6951 24.9908 28.3279 25 26.5075C25.0046 26.5028 25.0046 26.4981 25 26.4888C25 26.4888 25.0046 26.4841 25 26.4794C25 26.4794 25.0046 26.4748 25 26.4701C24.9963 26.0169 24.8849 25.5384 24.6426 25.0543C24.5109 24.7983 24.3211 24.5731 24.0954 24.4105C23.4294 23.932 22.7616 23.7871 22.1527 23.8684C21.8902 23.9012 21.6295 23.847 21.4019 23.7208C21.2085 23.6189 21.039 23.4666 20.9054 23.2797L19.6425 21.5154C19.4712 21.2771 19.3708 20.9902 19.3533 20.7014V20.6967C19.3422 20.4902 19.3745 20.2856 19.4555 20.0921C19.5826 19.794 19.6536 19.4669 19.6646 19.1202C19.6757 18.7773 19.6241 18.4465 19.5163 18.1409C19.4408 17.9147 19.4261 17.6764 19.4638 17.4484C19.5071 17.1886 19.6241 16.9363 19.7918 16.7317L21.1624 15.0514C21.3347 14.8421 21.5576 14.6795 21.8008 14.5963C22.0044 14.5206 22.2273 14.5001 22.4438 14.544C23.0471 14.6636 23.7223 14.5617 24.416 14.1272C24.6518 13.9796 24.8554 13.7665 25.0018 13.5198C25.2598 13.0796 25.4007 12.6357 25.444 12.2077C25.4495 12.1713 25.4504 12.1302 25.4523 12.0937V12.0666C25.4551 12.0031 25.4523 11.9339 25.4504 11.8741V11.8704ZM22.4125 24.2413C23.5114 24.2768 24.3672 25.2366 24.3312 26.3879C24.2953 27.5345 23.3815 28.4382 22.2826 28.4036C21.1836 28.369 20.3279 27.4083 20.3629 26.2608C20.3988 25.1095 21.3172 24.2058 22.4115 24.2404L22.4125 24.2413ZM17.1858 21.0743C16.0914 21.0397 15.2311 20.079 15.2661 18.9315C15.302 17.7802 16.2204 16.8765 17.3147 16.9111C18.4137 16.9466 19.2741 17.9063 19.2381 19.0586C19.2022 20.2108 18.2838 21.1089 17.1849 21.0743H17.1858ZM22.7293 14.0384C21.635 14.0039 20.7746 13.0432 20.8106 11.8919C20.8465 10.7452 21.7649 9.84158 22.8592 9.87616C23.9582 9.91167 24.8139 10.8714 24.7789 12.019C24.743 13.1703 23.8292 14.0739 22.7303 14.0394L22.7293 14.0384ZM22.3139 27.4214C22.8942 27.4401 23.3797 26.9663 23.399 26.358C23.4184 25.7496 22.9624 25.2422 22.3821 25.2235C21.8017 25.2048 21.3163 25.6832 21.2969 26.2907C21.2785 26.8981 21.7336 27.4027 22.3139 27.4205V27.4214ZM17.2853 17.8942C16.7049 17.8755 16.2195 18.354 16.2001 18.9614C16.1817 19.5688 16.6368 20.0772 17.2171 20.0959C17.7974 20.1146 18.2829 19.6361 18.3022 19.0287C18.3216 18.4212 17.8656 17.9129 17.2853 17.8942Z" fill="url(#paint2_linear_154_2)"/>
<path d="M32.42 29.0333C32.5425 28.4244 32.0952 27.8176 31.4207 27.6779C30.7463 27.5382 30.1003 27.9186 29.9777 28.5274C29.8552 29.1362 30.3026 29.743 30.977 29.8827C31.6514 30.0224 32.2975 29.6421 32.42 29.0333Z" fill="url(#paint3_linear_154_2)"/>
<path d="M26.2831 18.9239C25.6098 18.7847 24.9631 19.165 24.8406 19.7734C24.7181 20.3818 25.1658 20.9892 25.8391 21.1284C26.5125 21.2677 27.1592 20.8873 27.2817 20.279C27.4042 19.6706 26.9565 19.0632 26.2831 18.9239ZM26.2831 18.9239C25.6098 18.7847 24.9631 19.165 24.8406 19.7734C24.7181 20.3818 25.1658 20.9892 25.8391 21.1284C26.5125 21.2677 27.1592 20.8873 27.2817 20.279C27.4042 19.6706 26.9565 19.0632 26.2831 18.9239ZM23.329 33.5947C22.6556 33.4554 22.009 33.8358 21.8864 34.4441C21.7639 35.0525 22.2125 35.6552 22.8859 35.7954C23.5593 35.9347 24.205 35.559 24.3275 34.9506C24.45 34.3423 24.0023 33.7348 23.329 33.5956V33.5947ZM26.2831 18.9239C25.6098 18.7847 24.9631 19.165 24.8406 19.7734C24.7181 20.3818 25.1658 20.9892 25.8391 21.1284C26.5125 21.2677 27.1592 20.8873 27.2817 20.279C27.4042 19.6706 26.9565 19.0632 26.2831 18.9239ZM23.329 33.5947C22.6556 33.4554 22.009 33.8358 21.8864 34.4441C21.7639 35.0525 22.2125 35.6552 22.8859 35.7954C23.5593 35.9347 24.205 35.559 24.3275 34.9506C24.45 34.3423 24.0023 33.7348 23.329 33.5956V33.5947ZM26.2831 18.9239C25.6098 18.7847 24.9631 19.165 24.8406 19.7734C24.7181 20.3818 25.1658 20.9892 25.8391 21.1284C26.5125 21.2677 27.1592 20.8873 27.2817 20.279C27.4042 19.6706 26.9565 19.0632 26.2831 18.9239ZM31.6701 26.1065L31.1027 25.9888C31.0216 25.9719 30.9415 25.9505 30.8622 25.9243C30.3971 25.771 30.001 25.4598 29.7661 25.0533L28.6671 23.1479C28.4156 22.7189 28.3862 22.2124 28.6118 21.7975C28.6164 21.7985 28.6174 21.7938 28.6137 21.7882C28.6367 21.7499 28.6542 21.7153 28.6828 21.6788C29.1627 20.9967 29.3165 20.0752 28.8873 19.038C28.7657 18.7511 28.5658 18.4857 28.318 18.2763C25.7498 16.1475 22.2337 18.1978 23.3621 21.1378C23.4672 21.4265 23.6523 21.6891 23.8946 21.9013C24.5873 22.5218 25.3472 22.8124 26.0667 22.8563C26.144 22.8629 26.2223 22.8694 26.2979 22.8853C26.7787 22.9853 27.196 23.3002 27.4309 23.7058L28.6082 25.7467C28.8154 26.1046 28.8707 26.5112 28.7601 26.8793C28.7205 26.9999 28.6662 27.112 28.5916 27.2204C28.3991 27.4952 28.2572 27.8082 28.1872 28.1568C28.1181 28.4998 28.1282 28.8446 28.1982 29.1745C28.2259 29.2997 28.2305 29.4333 28.2203 29.5604C28.1817 29.938 27.9726 30.2949 27.6437 30.537L25.7719 31.9453C25.4615 32.1761 25.0672 32.2995 24.6656 32.278C24.5035 32.2733 24.345 32.2453 24.1875 32.1882C23.5086 31.9425 22.6989 31.9032 21.821 32.1985C21.5161 32.2976 21.2444 32.4695 21.0362 32.6891C18.8613 34.945 21.3033 38.2298 24.4887 37.2934C24.567 37.2719 24.6407 37.2439 24.7162 37.2121C24.7273 37.2093 24.7384 37.2075 24.7448 37.199C24.7964 37.1766 24.8443 37.1486 24.8922 37.1196C25.023 37.0467 25.1455 36.9626 25.2542 36.8654C25.2726 36.8505 25.292 36.8355 25.3058 36.8187C25.3113 36.815 25.3132 36.8056 25.3196 36.8028C25.3261 36.8 25.3261 36.7944 25.3325 36.7916C26.1063 36.0132 26.3135 35.117 26.1376 34.3133C26.1155 34.2133 26.1054 34.1068 26.1109 34.003V33.9984C26.1256 33.5909 26.3439 33.2125 26.6921 32.9508L28.5695 31.5434C28.8735 31.3154 29.2631 31.1911 29.661 31.207C29.8232 31.2117 29.9908 31.2472 30.1529 31.3042C30.8318 31.55 31.6379 31.5836 32.5203 31.2893C32.8252 31.1902 33.097 31.0183 33.3107 30.7958C35.0342 28.9988 33.8376 26.5541 31.6692 26.1046L31.6701 26.1065ZM25.642 22.1078C24.3653 21.8433 23.5197 20.6958 23.7509 19.5473C23.983 18.3941 25.2035 17.6801 26.4803 17.9446C27.757 18.209 28.598 19.351 28.3659 20.5032C28.1347 21.6518 26.9132 22.3704 25.642 22.1069V22.1078ZM22.6878 36.7785C21.4111 36.5141 20.5655 35.3665 20.7967 34.218C21.0279 33.0695 22.2503 32.3462 23.527 32.6106C24.7982 32.8742 25.6439 34.0217 25.4117 35.174C25.1796 36.3262 23.9591 37.0411 22.6878 36.7776V36.7785ZM30.7812 30.8641C29.5044 30.5996 28.6588 29.452 28.89 28.3035C29.1222 27.1504 30.3436 26.4317 31.6204 26.6962C32.8916 26.9597 33.7372 28.1073 33.5051 29.2595C33.2738 30.408 32.0524 31.1267 30.7812 30.8631V30.8641ZM26.2831 18.9239C25.6098 18.7847 24.9631 19.165 24.8406 19.7734C24.7181 20.3818 25.1658 20.9892 25.8391 21.1284C26.5125 21.2677 27.1592 20.8873 27.2817 20.279C27.4042 19.6706 26.9565 19.0632 26.2831 18.9239ZM23.329 33.5947C22.6556 33.4554 22.009 33.8358 21.8864 34.4441C21.7639 35.0525 22.2125 35.6552 22.8859 35.7954C23.5593 35.9347 24.205 35.559 24.3275 34.9506C24.45 34.3423 24.0023 33.7348 23.329 33.5956V33.5947ZM26.2831 18.9239C25.6098 18.7847 24.9631 19.165 24.8406 19.7734C24.7181 20.3818 25.1658 20.9892 25.8391 21.1284C26.5125 21.2677 27.1592 20.8873 27.2817 20.279C27.4042 19.6706 26.9565 19.0632 26.2831 18.9239ZM23.329 33.5947C22.6556 33.4554 22.009 33.8358 21.8864 34.4441C21.7639 35.0525 22.2125 35.6552 22.8859 35.7954C23.5593 35.9347 24.205 35.559 24.3275 34.9506C24.45 34.3423 24.0023 33.7348 23.329 33.5956V33.5947ZM26.2831 18.9239C25.6098 18.7847 24.9631 19.165 24.8406 19.7734C24.7181 20.3818 25.1658 20.9892 25.8391 21.1284C26.5125 21.2677 27.1592 20.8873 27.2817 20.279C27.4042 19.6706 26.9565 19.0632 26.2831 18.9239ZM23.329 33.5947C22.6556 33.4554 22.009 33.8358 21.8864 34.4441C21.7639 35.0525 22.2125 35.6552 22.8859 35.7954C23.5593 35.9347 24.205 35.559 24.3275 34.9506C24.45 34.3423 24.0023 33.7348 23.329 33.5956V33.5947ZM26.2831 18.9239C25.6098 18.7847 24.9631 19.165 24.8406 19.7734C24.7181 20.3818 25.1658 20.9892 25.8391 21.1284C26.5125 21.2677 27.1592 20.8873 27.2817 20.279C27.4042 19.6706 26.9565 19.0632 26.2831 18.9239ZM26.2831 18.9239C25.6098 18.7847 24.9631 19.165 24.8406 19.7734C24.7181 20.3818 25.1658 20.9892 25.8391 21.1284C26.5125 21.2677 27.1592 20.8873 27.2817 20.279C27.4042 19.6706 26.9565 19.0632 26.2831 18.9239Z" fill="url(#paint4_linear_154_2)"/>
<defs>
<linearGradient id="paint0_linear_154_2" x1="11.8338" y1="16.7893" x2="37.8474" y2="46.2832" gradientUnits="userSpaceOnUse">
<stop stop-color="#6285B7"/>
<stop offset="1" stop-color="#1AAE8C"/>
</linearGradient>
<linearGradient id="paint1_linear_154_2" x1="22.3949" y1="12.5704" x2="24.0154" y2="11.2652" gradientUnits="userSpaceOnUse">
<stop stop-color="#6285B7"/>
<stop offset="1" stop-color="#1AAE8C"/>
</linearGradient>
<linearGradient id="paint2_linear_154_2" x1="16.9334" y1="15.6047" x2="28.4471" y2="22.5869" gradientUnits="userSpaceOnUse">
<stop stop-color="#6285B7"/>
<stop offset="1" stop-color="#1AAE8C"/>
</linearGradient>
<linearGradient id="paint3_linear_154_2" x1="30.629" y1="29.3158" x2="32.5469" y2="28.0507" gradientUnits="userSpaceOnUse">
<stop stop-color="#6285B7"/>
<stop offset="1" stop-color="#1AAE8C"/>
</linearGradient>
<linearGradient id="paint4_linear_154_2" x1="23.2081" y1="23.7843" x2="35.8701" y2="33.5493" gradientUnits="userSpaceOnUse">
<stop stop-color="#6285B7"/>
<stop offset="1" stop-color="#1AAE8C"/>
</linearGradient>
</defs>
</svg>
