<svg width="679" height="647" viewBox="0 0 679 647" fill="none" xmlns="http://www.w3.org/2000/svg">
<path fill-rule="evenodd" clip-rule="evenodd" d="M479.47 349.013C460.049 371.581 435.919 389.956 408.374 402.151C376.199 416.399 340.122 420.845 302.482 414.113C250.953 404.902 203.675 376.764 168.772 333.534C132.647 288.804 114.759 234.048 126.668 174.371C140.78 104.186 183.03 53.7691 232.084 25.4855C270.277 3.45922 312.062 -2.62368 350.128 2.51966C376.878 6.14229 401.57 15.3829 423.583 27.1419C443.267 37.6417 461.359 50.6889 476.956 65.2085C493.738 81.0163 507.161 98.2867 517.43 115.741C526.496 131.152 533.93 148.122 539.793 165.644C547.189 187.893 552.265 211.15 555.002 234.396C555.002 235.665 554.992 236.847 554.973 237.932C554.847 237.021 554.74 236.101 554.662 235.152C552.692 218.037 549.499 200.805 545.015 184.067C540.637 167.688 534.794 151.425 527.379 135.636C520.895 122.018 513.014 108.816 503.793 96.611C494.281 83.9996 483.168 72.0372 470.677 61.179C453.652 46.3979 433.377 32.692 411.082 22.5991C385.633 11.0725 356.068 3.32361 323.107 5.83233C288.204 8.48633 254.107 22.9575 224.611 47.9284C188.835 78.2266 162.425 121.311 152.107 171.756C140.926 226.347 152.835 279.098 185.37 323.035C217.021 365.799 262.687 394.886 318.71 402.132C346.033 405.667 372.811 402.229 396.824 394.257C418.507 387.06 437.88 375.902 454.244 363C479.053 343.434 497.31 318.724 508.326 292.465C502.153 311.324 492.457 330.648 479.48 349.022L479.47 349.013ZM516.217 239.22C515.741 225.669 512.965 211.76 507.812 200.718C512.742 216.865 513.888 235.007 511.5 252.839C508.899 272.173 502.056 292.465 491.069 309.89C475.889 334.154 453.322 354.505 425.699 367.794C392.98 383.525 353.923 387.98 314.284 376.27C255.418 358.864 213.828 319.538 193.018 268.472C172.587 218.376 177.42 164.501 201.957 115.722C222.854 74.081 254.127 43.8311 288.554 27.6262C316.75 14.3465 346.828 11.3825 376.432 16.7583C403.637 22.0663 427.436 32.9923 447.47 46.088C465.552 57.9051 481.479 72.1825 494.34 87.041C513.538 109.222 528.602 136.537 538.376 164.84C542.627 177.132 545.966 189.666 548.635 202.258C551.362 215.121 553.342 228.285 554.633 241.545C554.653 241.429 554.682 241.322 554.672 241.225C554.711 240.935 554.769 240.663 554.779 240.383C554.012 232.721 553.071 225.272 551.877 218.046C549.246 202.035 545.539 185.879 540.56 170.264C535.677 154.951 529.466 139.734 521.604 125.166C513.635 110.414 503.609 96.2623 491.971 83.3603C479.713 69.7997 465.193 57.0721 448.906 45.9814C425.767 30.2318 398.92 17.0489 370.123 11.615C335.919 5.1543 296.192 9.91989 256.097 36.15C219.069 60.3751 190.776 97.0178 176.935 140.615C161.318 189.831 166.492 242.058 191.844 289.753C214.847 333.031 250.079 364.966 292.698 381.365C330.289 395.836 370.501 395.971 409.209 381.568C447.314 367.387 476.5 338.581 494 309.987C507.2 288.426 514.858 263.978 516.236 239.201L516.217 239.22Z" fill="url(#paint0_linear_125_10)"/>
<path d="M342.654 83.6184C342.853 77.3145 338.06 72.0479 331.946 71.8551C325.833 71.6623 320.715 76.6163 320.516 82.9203C320.316 89.2242 325.11 94.4909 331.223 94.6836C337.337 94.8764 342.454 89.9224 342.654 83.6184Z" fill="url(#paint1_linear_125_10)"/>
<path d="M273.519 144.819C267.405 144.625 262.29 149.585 262.086 155.881C261.892 162.177 266.686 167.446 272.801 167.64C278.916 167.833 284.031 162.874 284.235 156.578C284.439 150.282 279.634 145.013 273.519 144.819ZM273.519 144.819C267.405 144.625 262.29 149.585 262.086 155.881C261.892 162.177 266.686 167.446 272.801 167.64C278.916 167.833 284.031 162.874 284.235 156.578C284.439 150.282 279.634 145.013 273.519 144.819ZM359.553 82.382C359.369 72.231 353.856 63.3778 345.722 58.8156C345.178 58.4669 344.635 58.1667 344.091 57.9632C336.618 54.4084 327.329 54.3116 317.914 59.6099C315.294 61.0919 313.023 63.2035 311.421 65.809C305.568 75.0593 304.947 84.5227 307.684 92.3782C308.529 94.7706 308.674 97.3375 308.189 99.7881C307.694 102.384 306.51 104.854 304.792 106.936L290.398 124.352C288.437 126.706 285.904 128.382 283.119 129.195C281.119 129.844 278.955 130.009 276.848 129.612C270.54 128.372 263.377 129.428 256.068 133.932C254.709 134.794 253.476 135.792 252.38 136.993C251.904 137.448 251.526 137.913 251.137 138.426C250.71 138.978 250.274 139.627 249.885 140.286C249.837 140.334 249.837 140.431 249.788 140.47L249.643 140.751C247.071 145.129 245.731 149.585 245.275 153.885C245.129 155.493 245.129 157.101 245.217 158.67C245.285 159.339 245.353 160.046 245.479 160.714C245.556 161.237 245.634 161.76 245.751 162.244C245.789 162.574 245.867 162.913 245.945 163.242C246.071 163.765 246.187 164.249 246.352 164.772C246.517 165.392 246.721 166.061 246.983 166.69C247.614 168.414 248.439 170.1 249.4 171.65C249.439 171.747 249.536 171.795 249.575 171.892C250.409 173.199 251.283 174.459 252.351 175.582C257.019 180.706 263.58 183.99 270.976 184.232L276.121 184.397C276.897 184.426 277.683 184.493 278.411 184.61C282.711 185.365 286.545 187.758 289.185 191.4L301.57 208.428C303.025 210.365 303.967 212.671 304.355 215.015C304.908 217.736 304.685 220.574 303.55 223.141C300.317 230.813 300.337 240.295 305.598 249.894C307.034 252.548 309.169 254.844 311.693 256.491C312.324 256.888 313.003 257.295 313.634 257.692C314.313 258.04 314.944 258.399 315.624 258.699C316.303 259.048 316.983 259.309 317.623 259.571C336.56 267.136 354.71 252.965 354.807 234.096C354.855 234.048 354.855 233.999 354.807 233.903C354.807 233.903 354.855 233.854 354.807 233.806C354.807 233.806 354.855 233.757 354.807 233.709C354.768 229.011 353.594 224.052 351.041 219.034C349.653 216.38 347.653 214.046 345.276 212.361C338.258 207.401 331.221 205.9 324.806 206.743C322.039 207.082 319.293 206.52 316.895 205.212C314.857 204.156 313.071 202.578 311.664 200.64L298.357 182.353C296.552 179.883 295.494 176.909 295.309 173.916V173.868C295.193 171.727 295.532 169.606 296.387 167.601C297.726 164.511 298.473 161.121 298.59 157.527C298.706 153.972 298.163 150.544 297.027 147.376C296.231 145.032 296.076 142.562 296.474 140.199C296.93 137.506 298.163 134.891 299.929 132.769L314.372 115.354C316.187 113.184 318.536 111.499 321.098 110.637C323.243 109.852 325.592 109.639 327.873 110.094C334.23 111.334 341.345 110.278 348.653 105.774C351.138 104.244 353.283 102.035 354.826 99.4781C357.544 94.9159 359.029 90.315 359.485 85.8787C359.543 85.501 359.553 85.0748 359.572 84.697V84.4161C359.602 83.7575 359.572 83.0407 359.553 82.4208V82.382ZM327.543 210.607C339.122 210.975 348.139 220.923 347.76 232.856C347.382 244.741 337.753 254.108 326.174 253.749C314.595 253.391 305.578 243.434 305.947 231.539C306.325 219.606 316.002 210.239 327.533 210.598L327.543 210.607ZM272.471 177.781C260.94 177.423 251.875 167.465 252.244 155.571C252.622 143.637 262.299 134.271 273.83 134.629C285.409 134.997 294.474 144.945 294.096 156.888C293.717 168.831 284.041 178.139 272.461 177.781H272.471ZM330.882 104.854C319.351 104.496 310.286 94.5382 310.664 82.6048C311.043 70.7199 320.719 61.3534 332.25 61.7118C343.829 62.0799 352.846 72.0275 352.477 83.9221C352.099 95.8555 342.471 105.222 330.891 104.864L330.882 104.854ZM326.504 243.569C332.619 243.763 337.734 238.852 337.938 232.546C338.142 226.241 333.337 220.981 327.222 220.788C321.108 220.594 315.993 225.553 315.789 231.849C315.595 238.145 320.389 243.376 326.504 243.56V243.569ZM273.519 144.819C267.405 144.625 262.29 149.585 262.086 155.881C261.892 162.177 266.686 167.446 272.801 167.64C278.916 167.833 284.031 162.874 284.235 156.578C284.439 150.282 279.634 145.013 273.519 144.819Z" fill="url(#paint2_linear_125_10)"/>
<path d="M432.988 260.277C434.279 253.966 429.565 247.677 422.459 246.229C415.353 244.781 408.546 248.723 407.254 255.033C405.963 261.344 410.677 267.634 417.783 269.082C424.889 270.53 431.697 266.588 432.988 260.277Z" fill="url(#paint3_linear_125_10)"/>
<path d="M368.327 155.493C361.232 154.05 354.419 157.992 353.128 164.298C351.837 170.603 356.554 176.899 363.649 178.343C370.744 179.786 377.558 175.844 378.849 169.538C380.139 163.232 375.422 156.936 368.327 155.493ZM368.327 155.493C361.232 154.05 354.419 157.992 353.128 164.298C351.837 170.603 356.554 176.899 363.649 178.343C370.744 179.786 377.558 175.844 378.849 169.538C380.139 163.232 375.422 156.936 368.327 155.493ZM337.2 307.556C330.105 306.113 323.292 310.055 322.001 316.361C320.71 322.666 325.437 328.914 332.532 330.367C339.627 331.81 346.431 327.916 347.721 321.611C349.012 315.305 344.295 309.009 337.2 307.566V307.556ZM368.327 155.493C361.232 154.05 354.419 157.992 353.128 164.298C351.837 170.603 356.554 176.899 363.649 178.343C370.744 179.786 377.558 175.844 378.849 169.538C380.139 163.232 375.422 156.936 368.327 155.493ZM337.2 307.556C330.105 306.113 323.292 310.055 322.001 316.361C320.71 322.666 325.437 328.914 332.532 330.367C339.627 331.81 346.431 327.916 347.721 321.611C349.012 315.305 344.295 309.009 337.2 307.566V307.556ZM368.327 155.493C361.232 154.05 354.419 157.992 353.128 164.298C351.837 170.603 356.554 176.899 363.649 178.343C370.744 179.786 377.558 175.844 378.849 169.538C380.139 163.232 375.422 156.936 368.327 155.493ZM425.088 229.941L419.109 228.72C418.255 228.546 417.41 228.323 416.576 228.052C411.674 226.464 407.501 223.238 405.026 219.025L393.446 199.275C390.797 194.829 390.486 189.579 392.864 185.278C392.912 185.288 392.922 185.239 392.883 185.181C393.126 184.784 393.31 184.426 393.611 184.048C398.668 176.977 400.289 167.426 395.766 156.675C394.485 153.701 392.379 150.95 389.768 148.781C362.707 126.716 325.66 147.967 337.55 178.44C338.656 181.433 340.607 184.154 343.16 186.353C350.459 192.785 358.466 195.797 366.046 196.252C366.862 196.32 367.687 196.388 368.483 196.553C373.549 197.589 377.946 200.853 380.421 205.057L392.825 226.212C395.009 229.922 395.591 234.135 394.427 237.951C394.009 239.201 393.437 240.363 392.65 241.487C390.622 244.334 389.127 247.579 388.389 251.192C387.662 254.747 387.768 258.321 388.506 261.741C388.797 263.038 388.846 264.424 388.739 265.741C388.331 269.654 386.128 273.354 382.663 275.863L362.94 290.46C359.67 292.852 355.515 294.131 351.284 293.908C349.575 293.86 347.906 293.569 346.246 292.978C339.093 290.431 330.561 290.024 321.312 293.085C318.099 294.112 315.236 295.894 313.042 298.17C290.126 321.553 315.857 355.599 349.42 345.894C350.245 345.671 351.021 345.38 351.817 345.051C351.934 345.022 352.05 345.003 352.118 344.916C352.662 344.683 353.167 344.392 353.671 344.092C355.049 343.337 356.34 342.465 357.486 341.458C357.68 341.303 357.884 341.148 358.029 340.973C358.087 340.935 358.107 340.838 358.175 340.809C358.243 340.78 358.243 340.721 358.311 340.692C366.464 332.624 368.648 323.335 366.794 315.005C366.561 313.968 366.454 312.864 366.512 311.789V311.74C366.668 307.517 368.968 303.594 372.637 300.882L392.417 286.295C395.62 283.931 399.726 282.643 403.919 282.808C405.627 282.856 407.394 283.224 409.102 283.815C416.255 286.363 424.748 286.711 434.046 283.66C437.259 282.634 440.122 280.851 442.374 278.546C460.534 259.92 447.926 234.581 425.078 229.921L425.088 229.941ZM361.572 188.494C348.119 185.753 339.209 173.858 341.646 161.954C344.091 150.001 356.952 142.601 370.404 145.342C383.857 148.083 392.718 159.92 390.272 171.863C387.836 183.767 374.966 191.216 361.572 188.484V188.494ZM330.445 340.557C316.992 337.816 308.082 325.921 310.518 314.017C312.955 302.112 325.834 294.615 339.287 297.357C352.681 300.088 361.591 311.983 359.145 323.926C356.699 335.869 343.839 343.279 330.445 340.547V340.557ZM415.721 279.253C402.269 276.512 393.359 264.617 395.795 252.713C398.241 240.76 411.111 233.312 424.564 236.053C437.958 238.784 446.868 250.679 444.422 262.622C441.986 274.526 429.116 281.975 415.721 279.243V279.253ZM368.327 155.493C361.232 154.05 354.419 157.992 353.128 164.298C351.837 170.603 356.554 176.899 363.649 178.343C370.744 179.786 377.558 175.844 378.849 169.538C380.139 163.232 375.422 156.936 368.327 155.493ZM337.2 307.556C330.105 306.113 323.292 310.055 322.001 316.361C320.71 322.666 325.437 328.914 332.532 330.367C339.627 331.81 346.431 327.916 347.721 321.611C349.012 315.305 344.295 309.009 337.2 307.566V307.556ZM368.327 155.493C361.232 154.05 354.419 157.992 353.128 164.298C351.837 170.603 356.554 176.899 363.649 178.343C370.744 179.786 377.558 175.844 378.849 169.538C380.139 163.232 375.422 156.936 368.327 155.493ZM337.2 307.556C330.105 306.113 323.292 310.055 322.001 316.361C320.71 322.666 325.437 328.914 332.532 330.367C339.627 331.81 346.431 327.916 347.721 321.611C349.012 315.305 344.295 309.009 337.2 307.566V307.556ZM368.327 155.493C361.232 154.05 354.419 157.992 353.128 164.298C351.837 170.603 356.554 176.899 363.649 178.343C370.744 179.786 377.558 175.844 378.849 169.538C380.139 163.232 375.422 156.936 368.327 155.493ZM337.2 307.556C330.105 306.113 323.292 310.055 322.001 316.361C320.71 322.666 325.437 328.914 332.532 330.367C339.627 331.81 346.431 327.916 347.721 321.611C349.012 315.305 344.295 309.009 337.2 307.566V307.556ZM368.327 155.493C361.232 154.05 354.419 157.992 353.128 164.298C351.837 170.603 356.554 176.899 363.649 178.343C370.744 179.786 377.558 175.844 378.849 169.538C380.139 163.232 375.422 156.936 368.327 155.493ZM368.327 155.493C361.232 154.05 354.419 157.992 353.128 164.298C351.837 170.603 356.554 176.899 363.649 178.343C370.744 179.786 377.558 175.844 378.849 169.538C380.139 163.232 375.422 156.936 368.327 155.493Z" fill="url(#paint4_linear_125_10)"/>
<path d="M31.5341 623.059H80.6232V645.706H0V624.676L48.764 554.794H0V532.147H80.6232V553.176L31.5341 623.059Z" fill="url(#paint5_linear_125_10)"/>
<path d="M184.28 599.118C184.28 601.706 184.117 604.402 183.792 607.206H120.887C121.32 612.814 123.108 617.127 126.251 620.147C129.502 623.059 133.457 624.515 138.117 624.515C145.052 624.515 149.874 621.603 152.583 615.779H182.167C180.65 621.711 177.886 627.049 173.877 631.794C169.976 636.539 165.045 640.26 159.085 642.956C153.125 645.652 146.461 647 139.092 647C130.206 647 122.295 645.113 115.36 641.338C108.425 637.564 103.006 632.172 99.1053 625.162C95.2042 618.152 93.2536 609.956 93.2536 600.574C93.2536 591.191 95.15 582.995 98.9428 575.985C102.844 568.975 108.262 563.583 115.197 559.809C122.133 556.034 130.098 554.147 139.092 554.147C147.869 554.147 155.672 555.98 162.499 559.647C169.326 563.314 174.635 568.544 178.428 575.338C182.329 582.132 184.28 590.059 184.28 599.118ZM155.834 591.838C155.834 587.093 154.209 583.319 150.958 580.515C147.707 577.711 143.643 576.309 138.767 576.309C134.107 576.309 130.152 577.657 126.901 580.353C123.758 583.049 121.808 586.877 121.049 591.838H155.834Z" fill="url(#paint6_linear_125_10)"/>
<path d="M254.209 554.471C264.829 554.471 273.281 557.922 279.567 564.824C285.96 571.618 289.157 581 289.157 592.971V645.706H261.524V596.691C261.524 590.652 259.953 585.961 256.81 582.618C253.667 579.275 249.441 577.603 244.131 577.603C238.822 577.603 234.595 579.275 231.453 582.618C228.31 585.961 226.739 590.652 226.739 596.691V645.706H198.943V555.441H226.739V567.412C229.556 563.422 233.349 560.294 238.117 558.029C242.885 555.657 248.249 554.471 254.209 554.471Z" fill="url(#paint7_linear_125_10)"/>
<path d="M382.756 532.147V554.309H336.267V578.25H371.053V599.765H336.267V645.706H308.472V532.147H382.756Z" fill="url(#paint8_linear_125_10)"/>
<path d="M425.16 526V645.706H397.365V526H425.16Z" fill="url(#paint9_linear_125_10)"/>
<path d="M486.59 647C477.704 647 469.685 645.113 462.533 641.338C455.49 637.564 449.909 632.172 445.791 625.162C441.782 618.152 439.777 609.956 439.777 600.574C439.777 591.299 441.836 583.157 445.954 576.147C450.071 569.029 455.706 563.583 462.858 559.809C470.01 556.034 478.029 554.147 486.915 554.147C495.801 554.147 503.82 556.034 510.972 559.809C518.124 563.583 523.759 569.029 527.877 576.147C531.995 583.157 534.054 591.299 534.054 600.574C534.054 609.848 531.941 618.044 527.715 625.162C523.597 632.172 517.908 637.564 510.647 641.338C503.495 645.113 495.476 647 486.59 647ZM486.59 623.059C491.9 623.059 496.397 621.118 500.082 617.235C503.874 613.353 505.771 607.799 505.771 600.574C505.771 593.348 503.929 587.794 500.244 583.912C496.668 580.029 492.225 578.088 486.915 578.088C481.497 578.088 477 580.029 473.424 583.912C469.848 587.686 468.06 593.24 468.06 600.574C468.06 607.799 469.794 613.353 473.261 617.235C476.837 621.118 481.28 623.059 486.59 623.059Z" fill="url(#paint10_linear_125_10)"/>
<path d="M679 555.441L654.455 645.706H623.734L609.43 587.147L594.638 645.706H564.079L539.372 555.441H567.168L580.009 619.985L595.288 555.441H624.709L640.151 619.662L652.83 555.441H679Z" fill="url(#paint11_linear_125_10)"/>
<defs>
<linearGradient id="paint0_linear_125_10" x1="122.999" y1="208.999" x2="555.002" y2="208.999" gradientUnits="userSpaceOnUse">
<stop stop-color="#6285B7"/>
<stop offset="1" stop-color="#1AAE8C"/>
</linearGradient>
<linearGradient id="paint1_linear_125_10" x1="330.183" y1="82.0061" x2="349.123" y2="93.6814" gradientUnits="userSpaceOnUse">
<stop stop-color="#6285B7"/>
<stop offset="1" stop-color="#1AAE8C"/>
</linearGradient>
<linearGradient id="paint2_linear_125_10" x1="269.812" y1="121.089" x2="390.049" y2="195.21" gradientUnits="userSpaceOnUse">
<stop stop-color="#6285B7"/>
<stop offset="1" stop-color="#1AAE8C"/>
</linearGradient>
<linearGradient id="paint3_linear_125_10" x1="425.819" y1="262.129" x2="446.062" y2="277.864" gradientUnits="userSpaceOnUse">
<stop stop-color="#6285B7"/>
<stop offset="1" stop-color="#1AAE8C"/>
</linearGradient>
<linearGradient id="paint4_linear_125_10" x1="312.777" y1="213.308" x2="441.266" y2="313.214" gradientUnits="userSpaceOnUse">
<stop stop-color="#6285B7"/>
<stop offset="1" stop-color="#1AAE8C"/>
</linearGradient>
<linearGradient id="paint5_linear_125_10" x1="360.471" y1="586.5" x2="680.208" y2="600.852" gradientUnits="userSpaceOnUse">
<stop stop-color="#647EBB"/>
<stop offset="1" stop-color="#07B393"/>
</linearGradient>
<linearGradient id="paint6_linear_125_10" x1="360.471" y1="586.5" x2="680.208" y2="600.852" gradientUnits="userSpaceOnUse">
<stop stop-color="#647EBB"/>
<stop offset="1" stop-color="#07B393"/>
</linearGradient>
<linearGradient id="paint7_linear_125_10" x1="360.471" y1="586.5" x2="680.208" y2="600.852" gradientUnits="userSpaceOnUse">
<stop stop-color="#647EBB"/>
<stop offset="1" stop-color="#07B393"/>
</linearGradient>
<linearGradient id="paint8_linear_125_10" x1="360.471" y1="586.5" x2="680.208" y2="600.852" gradientUnits="userSpaceOnUse">
<stop stop-color="#647EBB"/>
<stop offset="1" stop-color="#07B393"/>
</linearGradient>
<linearGradient id="paint9_linear_125_10" x1="360.471" y1="586.5" x2="680.208" y2="600.852" gradientUnits="userSpaceOnUse">
<stop stop-color="#647EBB"/>
<stop offset="1" stop-color="#07B393"/>
</linearGradient>
<linearGradient id="paint10_linear_125_10" x1="360.471" y1="586.5" x2="680.208" y2="600.852" gradientUnits="userSpaceOnUse">
<stop stop-color="#647EBB"/>
<stop offset="1" stop-color="#07B393"/>
</linearGradient>
<linearGradient id="paint11_linear_125_10" x1="360.471" y1="586.5" x2="680.208" y2="600.852" gradientUnits="userSpaceOnUse">
<stop stop-color="#647EBB"/>
<stop offset="1" stop-color="#07B393"/>
</linearGradient>
</defs>
</svg>
