<svg width="965" height="331" viewBox="0 0 965 331" fill="none" xmlns="http://www.w3.org/2000/svg">
<path fill-rule="evenodd" clip-rule="evenodd" d="M282.845 276.289C267.435 294.197 248.29 308.776 226.433 318.452C200.903 329.758 172.278 333.286 142.412 327.944C101.526 320.635 64.0126 298.308 36.3187 264.008C7.65437 228.516 -6.53915 185.069 2.91036 137.718C14.1081 82.0283 47.6319 42.0247 86.5543 19.5828C116.859 2.10579 150.013 -2.72077 180.218 1.36028C201.443 4.23469 221.035 11.5667 238.501 20.8971C254.119 29.2282 268.475 39.5807 280.851 51.1014C294.166 63.6443 304.817 77.3477 312.965 91.1972C320.158 103.425 326.057 116.89 330.709 130.793C336.577 148.447 340.605 166.9 342.777 185.346C342.777 186.352 342.769 187.29 342.754 188.151C342.654 187.428 342.569 186.698 342.507 185.945C340.944 172.365 338.41 158.692 334.852 145.411C331.379 132.415 326.743 119.511 320.859 106.983C315.715 96.1774 309.461 85.702 302.145 76.0181C294.598 66.0115 285.78 56.5198 275.868 47.9042C262.36 36.176 246.272 25.3009 228.582 17.2925C208.389 8.14666 184.931 1.99819 158.777 3.98876C131.083 6.09461 104.029 17.5769 80.6243 37.3903C52.2373 61.4309 31.282 95.6164 23.0955 135.643C14.2236 178.959 23.6731 220.815 49.4879 255.677C74.6019 289.608 110.837 312.688 155.289 318.437C176.968 321.242 198.216 318.514 217.269 312.189C234.473 306.478 249.845 297.624 262.83 287.387C282.514 271.862 297 252.256 305.741 231.421C300.843 246.385 293.15 261.717 282.853 276.297L282.845 276.289ZM312.003 189.173C311.625 178.421 309.423 167.384 305.333 158.623C309.245 171.435 310.154 185.83 308.26 199.979C306.196 215.319 300.766 231.421 292.048 245.247C280.004 264.5 262.098 280.647 240.18 291.192C214.219 303.673 183.229 307.208 151.777 297.917C105.068 284.106 72.0682 252.902 55.5565 212.384C39.3453 172.634 43.1805 129.886 62.6494 91.1818C79.2304 58.1414 104.044 34.1393 131.361 21.2813C153.733 10.7444 177.599 8.3926 201.088 12.6581C222.675 16.8698 241.559 25.5392 257.454 35.9301C271.802 45.3065 284.44 56.6351 294.644 68.4248C309.877 86.0248 321.829 107.698 329.585 130.155C332.958 139.908 335.607 149.854 337.725 159.845C339.889 170.051 341.46 180.496 342.484 191.018C342.5 190.925 342.523 190.841 342.515 190.764C342.546 190.533 342.592 190.318 342.6 190.095C341.991 184.016 341.244 178.106 340.297 172.372C338.21 159.668 335.268 146.849 331.317 134.459C327.444 122.308 322.515 110.234 316.277 98.6752C309.954 86.9701 301.999 75.7414 292.765 65.5042C283.038 54.7444 271.517 44.6455 258.594 35.8455C240.234 23.3488 218.932 12.8887 196.082 8.57705C168.943 3.45076 137.422 7.23208 105.607 28.0447C76.2269 47.2663 53.7775 76.3409 42.7955 110.934C30.4041 149.984 34.5088 191.425 54.6247 229.269C72.8768 263.608 100.833 288.947 134.649 301.959C164.476 313.441 196.383 313.549 227.096 302.121C257.331 290.869 280.489 268.012 294.374 245.324C304.848 228.216 310.924 208.817 312.018 189.158L312.003 189.173Z" fill="url(#paint0_linear_136_115)"/>
<path d="M174.287 65.709C174.445 60.7071 170.642 56.5282 165.791 56.3753C160.94 56.2223 156.88 60.1532 156.721 65.1551C156.563 70.157 160.367 74.3359 165.217 74.4889C170.068 74.6418 174.129 70.711 174.287 65.709Z" fill="url(#paint1_linear_136_115)"/>
<path d="M119.431 114.269C114.58 114.116 110.521 118.051 110.359 123.046C110.205 128.042 114.01 132.223 118.861 132.377C123.713 132.53 127.772 128.595 127.934 123.6C128.095 118.604 124.283 114.423 119.431 114.269ZM119.431 114.269C114.58 114.116 110.521 118.051 110.359 123.046C110.205 128.042 114.01 132.223 118.861 132.377C123.713 132.53 127.772 128.595 127.934 123.6C128.095 118.604 124.283 114.423 119.431 114.269ZM187.696 64.728C187.549 56.6735 183.175 49.6489 176.721 46.029C176.29 45.7523 175.859 45.514 175.428 45.3526C169.498 42.532 162.127 42.4552 154.657 46.6592C152.578 47.8351 150.776 49.5105 149.505 51.578C144.861 58.9177 144.368 66.4265 146.54 72.6595C147.21 74.5579 147.325 76.5946 146.94 78.539C146.548 80.5988 145.608 82.5586 144.245 84.211L132.824 98.0297C131.268 99.8973 129.258 101.227 127.048 101.872C125.461 102.387 123.744 102.518 122.073 102.203C117.067 101.219 111.383 102.057 105.584 105.631C104.506 106.315 103.528 107.106 102.658 108.059C102.281 108.421 101.98 108.79 101.672 109.197C101.333 109.635 100.987 110.15 100.679 110.672C100.64 110.711 100.64 110.788 100.602 110.819L100.486 111.041C98.4453 114.515 97.3825 118.051 97.0205 121.463C96.905 122.739 96.905 124.015 96.9743 125.26C97.0282 125.79 97.0821 126.351 97.1822 126.881C97.2439 127.296 97.3055 127.711 97.3979 128.096C97.4287 128.357 97.4903 128.626 97.5519 128.887C97.652 129.302 97.7444 129.687 97.8754 130.102C98.0063 130.594 98.168 131.124 98.3759 131.623C98.8765 132.991 99.5311 134.329 100.294 135.558C100.324 135.635 100.401 135.674 100.432 135.751C101.095 136.788 101.788 137.787 102.635 138.679C106.339 142.744 111.545 145.35 117.414 145.542L121.495 145.673C122.111 145.696 122.735 145.75 123.313 145.842C126.724 146.441 129.766 148.34 131.861 151.229L141.688 164.741C142.843 166.278 143.59 168.107 143.898 169.967C144.337 172.126 144.16 174.378 143.259 176.415C140.695 182.502 140.71 190.026 144.884 197.643C146.024 199.748 147.718 201.57 149.721 202.877C150.221 203.192 150.76 203.514 151.261 203.83C151.8 204.106 152.301 204.391 152.84 204.629C153.379 204.906 153.918 205.113 154.426 205.321C169.451 211.323 183.853 200.079 183.93 185.107C183.968 185.069 183.968 185.031 183.93 184.954C183.93 184.954 183.968 184.915 183.93 184.877C183.93 184.877 183.968 184.838 183.93 184.8C183.899 181.073 182.967 177.137 180.942 173.156C179.84 171.05 178.254 169.198 176.367 167.861C170.799 163.926 165.216 162.735 160.125 163.403C157.93 163.672 155.751 163.227 153.848 162.189C152.231 161.351 150.814 160.099 149.697 158.561L139.139 144.051C137.707 142.091 136.867 139.732 136.721 137.357V137.318C136.628 135.62 136.898 133.937 137.576 132.346C138.638 129.894 139.231 127.204 139.324 124.353C139.416 121.532 138.985 118.812 138.084 116.298C137.452 114.438 137.329 112.479 137.645 110.603C138.007 108.467 138.985 106.392 140.387 104.708L151.846 90.8898C153.286 89.1682 155.15 87.8309 157.183 87.1469C158.885 86.5244 160.749 86.3553 162.559 86.7165C167.603 87.7002 173.248 86.8625 179.047 83.2887C181.019 82.0744 182.721 80.3221 183.945 78.2931C186.102 74.6732 187.28 71.0225 187.642 67.5025C187.688 67.2028 187.696 66.8646 187.711 66.5649V66.342C187.734 65.8194 187.711 65.2506 187.696 64.7588V64.728ZM162.297 166.47C171.485 166.762 178.639 174.655 178.339 184.124C178.038 193.554 170.399 200.986 161.211 200.702C152.023 200.417 144.869 192.516 145.161 183.078C145.462 173.61 153.14 166.178 162.289 166.462L162.297 166.47ZM118.6 140.423C109.45 140.139 102.257 132.238 102.55 122.8C102.85 113.332 110.529 105.9 119.678 106.184C128.865 106.476 136.058 114.369 135.758 123.846C135.458 133.322 127.78 140.708 118.592 140.423H118.6ZM164.946 82.5586C155.797 82.2742 148.604 74.3734 148.904 64.9048C149.205 55.4746 156.883 48.0426 166.032 48.327C175.22 48.619 182.374 56.5121 182.081 65.95C181.781 75.4187 174.141 82.8506 164.954 82.5663L164.946 82.5586ZM161.473 192.624C166.325 192.778 170.383 188.881 170.545 183.878C170.707 178.874 166.895 174.701 162.043 174.547C157.191 174.394 153.132 178.329 152.971 183.324C152.817 188.32 156.621 192.47 161.473 192.616V192.624ZM119.431 114.269C114.58 114.116 110.521 118.051 110.359 123.046C110.205 128.042 114.01 132.223 118.861 132.377C123.713 132.53 127.772 128.595 127.934 123.6C128.095 118.604 124.283 114.423 119.431 114.269Z" fill="url(#paint2_linear_136_115)"/>
<path d="M245.964 205.881C246.988 200.874 243.248 195.883 237.609 194.734C231.971 193.585 226.57 196.713 225.545 201.72C224.521 206.728 228.261 211.718 233.899 212.867C239.538 214.016 244.939 210.888 245.964 205.881Z" fill="url(#paint3_linear_136_115)"/>
<path d="M194.658 122.739C189.028 121.594 183.622 124.722 182.598 129.725C181.573 134.728 185.316 139.724 190.946 140.869C196.575 142.014 201.982 138.886 203.006 133.883C204.03 128.88 200.287 123.884 194.658 122.739ZM194.658 122.739C189.028 121.594 183.622 124.722 182.598 129.725C181.573 134.728 185.316 139.724 190.946 140.869C196.575 142.014 201.982 138.886 203.006 133.883C204.03 128.88 200.287 123.884 194.658 122.739ZM169.96 243.395C164.33 242.25 158.924 245.378 157.899 250.381C156.875 255.384 160.626 260.342 166.255 261.494C171.885 262.64 177.284 259.55 178.308 254.547C179.332 249.543 175.589 244.548 169.96 243.403V243.395ZM194.658 122.739C189.028 121.594 183.622 124.722 182.598 129.725C181.573 134.728 185.316 139.724 190.946 140.869C196.575 142.014 201.982 138.886 203.006 133.883C204.03 128.88 200.287 123.884 194.658 122.739ZM169.96 243.395C164.33 242.25 158.924 245.378 157.899 250.381C156.875 255.384 160.626 260.342 166.255 261.494C171.885 262.64 177.284 259.55 178.308 254.547C179.332 249.543 175.589 244.548 169.96 243.403V243.395ZM194.658 122.739C189.028 121.594 183.622 124.722 182.598 129.725C181.573 134.728 185.316 139.724 190.946 140.869C196.575 142.014 201.982 138.886 203.006 133.883C204.03 128.88 200.287 123.884 194.658 122.739ZM239.695 181.81L234.951 180.842C234.273 180.704 233.603 180.527 232.941 180.312C229.052 179.051 225.74 176.492 223.776 173.149L214.589 157.478C212.486 153.95 212.24 149.784 214.127 146.372C214.165 146.38 214.173 146.341 214.142 146.295C214.335 145.98 214.481 145.696 214.72 145.396C218.732 139.785 220.018 132.207 216.429 123.676C215.413 121.317 213.742 119.134 211.67 117.413C190.199 99.9049 160.803 116.767 170.237 140.946C171.115 143.321 172.663 145.48 174.688 147.225C180.48 152.328 186.833 154.719 192.848 155.08C193.495 155.134 194.15 155.187 194.781 155.318C198.801 156.14 202.29 158.73 204.254 162.066L214.096 178.851C215.829 181.795 216.291 185.138 215.367 188.166C215.035 189.158 214.581 190.08 213.957 190.971C212.348 193.231 211.162 195.806 210.576 198.672C209.999 201.493 210.084 204.329 210.669 207.042C210.9 208.072 210.938 209.171 210.854 210.216C210.53 213.321 208.782 216.257 206.033 218.248L190.384 229.83C187.788 231.728 184.492 232.743 181.134 232.566C179.779 232.527 178.454 232.297 177.137 231.828C171.461 229.807 164.692 229.484 157.353 231.913C154.804 232.727 152.532 234.141 150.791 235.948C132.608 254.501 153.025 281.515 179.656 273.814C180.31 273.638 180.926 273.407 181.558 273.146C181.65 273.123 181.743 273.107 181.797 273.038C182.228 272.854 182.628 272.623 183.029 272.385C184.122 271.785 185.147 271.094 186.055 270.294C186.209 270.172 186.371 270.049 186.487 269.91C186.533 269.879 186.548 269.803 186.602 269.78C186.656 269.756 186.656 269.71 186.71 269.687C193.179 263.285 194.912 255.915 193.441 249.305C193.256 248.483 193.171 247.607 193.218 246.754V246.715C193.341 243.364 195.166 240.252 198.077 238.1L213.772 226.525C216.314 224.65 219.572 223.628 222.899 223.758C224.254 223.797 225.656 224.089 227.011 224.558C232.687 226.579 239.426 226.856 246.803 224.435C249.353 223.62 251.624 222.206 253.411 220.377C267.82 205.597 257.816 185.492 239.687 181.795L239.695 181.81ZM189.298 148.924C178.624 146.749 171.554 137.311 173.487 127.865C175.428 118.381 185.632 112.509 196.306 114.684C206.98 116.859 214.011 126.251 212.07 135.727C210.137 145.173 199.926 151.083 189.298 148.916V148.924ZM164.6 269.58C153.926 267.405 146.856 257.967 148.789 248.521C150.722 239.076 160.941 233.127 171.615 235.302C182.243 237.469 189.313 246.907 187.372 256.384C185.432 265.86 175.227 271.739 164.6 269.572V269.58ZM232.263 220.938C221.589 218.763 214.519 209.325 216.453 199.879C218.393 190.395 228.605 184.485 239.279 186.66C249.907 188.827 256.977 198.265 255.036 207.741C253.103 217.187 242.891 223.097 232.263 220.93V220.938ZM194.658 122.739C189.028 121.594 183.622 124.722 182.598 129.725C181.573 134.728 185.316 139.724 190.946 140.869C196.575 142.014 201.982 138.886 203.006 133.883C204.03 128.88 200.287 123.884 194.658 122.739ZM169.96 243.395C164.33 242.25 158.924 245.378 157.899 250.381C156.875 255.384 160.626 260.342 166.255 261.494C171.885 262.64 177.284 259.55 178.308 254.547C179.332 249.543 175.589 244.548 169.96 243.403V243.395ZM194.658 122.739C189.028 121.594 183.622 124.722 182.598 129.725C181.573 134.728 185.316 139.724 190.946 140.869C196.575 142.014 201.982 138.886 203.006 133.883C204.03 128.88 200.287 123.884 194.658 122.739ZM169.96 243.395C164.33 242.25 158.924 245.378 157.899 250.381C156.875 255.384 160.626 260.342 166.255 261.494C171.885 262.64 177.284 259.55 178.308 254.547C179.332 249.543 175.589 244.548 169.96 243.403V243.395ZM194.658 122.739C189.028 121.594 183.622 124.722 182.598 129.725C181.573 134.728 185.316 139.724 190.946 140.869C196.575 142.014 201.982 138.886 203.006 133.883C204.03 128.88 200.287 123.884 194.658 122.739ZM169.96 243.395C164.33 242.25 158.924 245.378 157.899 250.381C156.875 255.384 160.626 260.342 166.255 261.494C171.885 262.64 177.284 259.55 178.308 254.547C179.332 249.543 175.589 244.548 169.96 243.403V243.395ZM194.658 122.739C189.028 121.594 183.622 124.722 182.598 129.725C181.573 134.728 185.316 139.724 190.946 140.869C196.575 142.014 201.982 138.886 203.006 133.883C204.03 128.88 200.287 123.884 194.658 122.739ZM194.658 122.739C189.028 121.594 183.622 124.722 182.598 129.725C181.573 134.728 185.316 139.724 190.946 140.869C196.575 142.014 201.982 138.886 203.006 133.883C204.03 128.88 200.287 123.884 194.658 122.739Z" fill="url(#paint4_linear_136_115)"/>
<path d="M437.682 195.412H477.662V213.941H412V196.735L451.715 139.559H412V121.029H477.662V138.235L437.682 195.412Z" fill="url(#paint5_linear_136_115)"/>
<path d="M562.084 175.824C562.084 177.941 561.951 180.147 561.686 182.441H510.454C510.807 187.029 512.263 190.559 514.823 193.029C517.47 195.412 520.692 196.603 524.487 196.603C530.135 196.603 534.062 194.221 536.269 189.456H560.363C559.127 194.309 556.877 198.676 553.611 202.559C550.434 206.441 546.418 209.485 541.564 211.691C536.71 213.897 531.282 215 525.281 215C518.044 215 511.601 213.456 505.953 210.368C500.305 207.279 495.892 202.868 492.715 197.132C489.537 191.397 487.949 184.691 487.949 177.015C487.949 169.338 489.493 162.632 492.582 156.897C495.759 151.162 500.172 146.75 505.821 143.662C511.469 140.574 517.956 139.029 525.281 139.029C532.43 139.029 538.784 140.529 544.344 143.529C549.904 146.529 554.229 150.809 557.318 156.368C560.495 161.926 562.084 168.412 562.084 175.824ZM538.916 169.868C538.916 165.985 537.593 162.897 534.945 160.603C532.297 158.309 528.988 157.162 525.016 157.162C521.221 157.162 518 158.265 515.352 160.471C512.793 162.676 511.204 165.809 510.586 169.868H538.916Z" fill="url(#paint6_linear_136_115)"/>
<path d="M619.036 139.294C627.685 139.294 634.569 142.118 639.688 147.765C644.895 153.324 647.499 161 647.499 170.794V213.941H624.994V173.838C624.994 168.897 623.714 165.059 621.155 162.324C618.595 159.588 615.153 158.221 610.829 158.221C606.504 158.221 603.062 159.588 600.503 162.324C597.943 165.059 596.664 168.897 596.664 173.838V213.941H574.026V140.088H596.664V149.882C598.958 146.618 602.047 144.059 605.93 142.206C609.814 140.265 614.182 139.294 619.036 139.294Z" fill="url(#paint7_linear_136_115)"/>
<path d="M723.729 121.029V139.162H685.867V158.75H714.197V176.353H685.867V213.941H663.23V121.029H723.729Z" fill="url(#paint8_linear_136_115)"/>
<path d="M758.265 116V213.941H735.627V116H758.265Z" fill="url(#paint9_linear_136_115)"/>
<path d="M808.295 215C801.058 215 794.527 213.456 788.702 210.368C782.966 207.279 778.421 202.868 775.067 197.132C771.801 191.397 770.169 184.691 770.169 177.015C770.169 169.426 771.846 162.765 775.199 157.029C778.553 151.206 783.142 146.75 788.967 143.662C794.792 140.574 801.323 139.029 808.56 139.029C815.797 139.029 822.328 140.574 828.153 143.662C833.978 146.75 838.567 151.206 841.921 157.029C845.274 162.765 846.951 169.426 846.951 177.015C846.951 184.603 845.23 191.309 841.788 197.132C838.435 202.868 833.801 207.279 827.888 210.368C822.063 213.456 815.532 215 808.295 215ZM808.295 195.412C812.62 195.412 816.282 193.824 819.283 190.647C822.372 187.471 823.916 182.926 823.916 177.015C823.916 171.103 822.416 166.559 819.415 163.382C816.503 160.206 812.884 158.618 808.56 158.618C804.147 158.618 800.485 160.206 797.572 163.382C794.66 166.471 793.203 171.015 793.203 177.015C793.203 182.926 794.616 187.471 797.44 190.647C800.352 193.824 803.971 195.412 808.295 195.412Z" fill="url(#paint10_linear_136_115)"/>
<path d="M965 140.088L945.01 213.941H919.99L908.34 166.029L896.293 213.941H871.405L851.283 140.088H873.92L884.378 192.897L896.823 140.088H920.784L933.36 192.632L943.686 140.088H965Z" fill="url(#paint11_linear_136_115)"/>
<defs>
<linearGradient id="paint0_linear_136_115" x1="-0.000733237" y1="165.194" x2="342.777" y2="165.194" gradientUnits="userSpaceOnUse">
<stop stop-color="#6285B7"/>
<stop offset="1" stop-color="#1AAE8C"/>
</linearGradient>
<linearGradient id="paint1_linear_136_115" x1="164.392" y1="64.4297" x2="179.42" y2="73.6936" gradientUnits="userSpaceOnUse">
<stop stop-color="#6285B7"/>
<stop offset="1" stop-color="#1AAE8C"/>
</linearGradient>
<linearGradient id="paint2_linear_136_115" x1="116.489" y1="95.4404" x2="211.893" y2="154.253" gradientUnits="userSpaceOnUse">
<stop stop-color="#6285B7"/>
<stop offset="1" stop-color="#1AAE8C"/>
</linearGradient>
<linearGradient id="paint3_linear_136_115" x1="240.275" y1="207.35" x2="256.338" y2="219.835" gradientUnits="userSpaceOnUse">
<stop stop-color="#6285B7"/>
<stop offset="1" stop-color="#1AAE8C"/>
</linearGradient>
<linearGradient id="paint4_linear_136_115" x1="150.581" y1="168.613" x2="252.532" y2="247.884" gradientUnits="userSpaceOnUse">
<stop stop-color="#6285B7"/>
<stop offset="1" stop-color="#1AAE8C"/>
</linearGradient>
<linearGradient id="paint5_linear_136_115" x1="705.58" y1="165.5" x2="965.989" y2="177.136" gradientUnits="userSpaceOnUse">
<stop stop-color="#647EBB"/>
<stop offset="1" stop-color="#07B393"/>
</linearGradient>
<linearGradient id="paint6_linear_136_115" x1="705.58" y1="165.5" x2="965.989" y2="177.136" gradientUnits="userSpaceOnUse">
<stop stop-color="#647EBB"/>
<stop offset="1" stop-color="#07B393"/>
</linearGradient>
<linearGradient id="paint7_linear_136_115" x1="705.58" y1="165.5" x2="965.989" y2="177.136" gradientUnits="userSpaceOnUse">
<stop stop-color="#647EBB"/>
<stop offset="1" stop-color="#07B393"/>
</linearGradient>
<linearGradient id="paint8_linear_136_115" x1="705.58" y1="165.5" x2="965.989" y2="177.136" gradientUnits="userSpaceOnUse">
<stop stop-color="#647EBB"/>
<stop offset="1" stop-color="#07B393"/>
</linearGradient>
<linearGradient id="paint9_linear_136_115" x1="705.58" y1="165.5" x2="965.989" y2="177.136" gradientUnits="userSpaceOnUse">
<stop stop-color="#647EBB"/>
<stop offset="1" stop-color="#07B393"/>
</linearGradient>
<linearGradient id="paint10_linear_136_115" x1="705.58" y1="165.5" x2="965.989" y2="177.136" gradientUnits="userSpaceOnUse">
<stop stop-color="#647EBB"/>
<stop offset="1" stop-color="#07B393"/>
</linearGradient>
<linearGradient id="paint11_linear_136_115" x1="705.58" y1="165.5" x2="965.989" y2="177.136" gradientUnits="userSpaceOnUse">
<stop stop-color="#647EBB"/>
<stop offset="1" stop-color="#07B393"/>
</linearGradient>
</defs>
</svg>
