<svg width="307" height="300" viewBox="0 0 307 300" fill="none" xmlns="http://www.w3.org/2000/svg">
<path fill-rule="evenodd" clip-rule="evenodd" d="M253.411 250.398C239.632 266.618 222.513 279.823 202.97 288.587C180.142 298.827 154.546 302.023 127.841 297.185C91.2824 290.564 57.7396 270.342 32.9768 239.274C7.34632 207.127 -5.34498 167.775 3.10441 124.887C13.117 74.4457 43.0927 38.2124 77.8956 17.8856C104.993 2.05576 134.638 -2.3159 161.646 1.38052C180.624 3.98402 198.143 10.625 213.761 19.076C227.726 26.622 240.562 35.9988 251.628 46.4337C263.534 57.7944 273.058 70.2063 280.343 82.7505C286.775 93.8258 292.05 106.022 296.209 118.615C301.457 134.605 305.058 151.319 307 168.026C307 168.938 306.993 169.787 306.979 170.567C306.89 169.912 306.814 169.251 306.759 168.569C305.361 156.268 303.096 143.884 299.914 131.855C296.808 120.084 292.663 108.396 287.402 97.0489C282.802 87.2614 277.21 77.7732 270.668 69.002C263.92 59.9385 256.035 51.3414 247.173 43.5378C235.094 32.9149 220.709 23.0648 204.891 15.8112C186.836 7.52729 165.86 1.9583 142.475 3.76126C117.712 5.66864 93.5204 16.0687 72.5932 34.0148C47.2106 55.7896 28.4732 86.7532 21.1532 123.007C13.2203 162.241 21.6696 200.152 44.7522 231.728C67.2082 262.462 99.6078 283.366 139.355 288.574C158.74 291.114 177.739 288.643 194.775 282.914C210.159 277.742 223.904 269.722 235.514 260.45C253.115 246.388 266.068 228.63 273.884 209.758C269.505 223.312 262.625 237.2 253.418 250.405L253.411 250.398ZM279.483 171.492C279.145 161.754 277.176 151.757 273.519 143.821C277.017 155.426 277.83 168.464 276.136 181.28C274.29 195.175 269.436 209.758 261.641 222.282C250.87 239.72 234.86 254.345 215.262 263.896C192.048 275.201 164.338 278.403 136.215 269.987C94.4501 257.478 64.9426 229.215 50.1786 192.515C35.6831 156.512 39.1124 117.793 56.5208 82.7366C71.3468 52.8102 93.5342 31.0702 117.96 19.4241C137.964 9.88019 159.304 7.75005 180.307 11.6135C199.609 15.4283 216.494 23.2806 230.708 32.6922C243.537 41.1849 254.837 51.4458 263.961 62.1243C277.582 78.0656 288.27 97.6963 295.204 118.037C298.22 126.871 300.589 135.879 302.483 144.928C304.418 154.173 305.822 163.633 306.738 173.163C306.752 173.08 306.773 173.003 306.766 172.933C306.793 172.725 306.835 172.53 306.842 172.328C306.298 166.821 305.63 161.468 304.783 156.275C302.916 144.768 300.286 133.157 296.753 121.935C293.29 110.93 288.882 99.9935 283.305 89.5238C277.651 78.9218 270.537 68.7514 262.281 59.479C253.584 49.7333 243.282 40.5862 231.727 32.6156C215.31 21.2966 196.263 11.8224 175.831 7.91712C151.564 3.27398 123.379 6.69891 94.9321 25.55C68.6612 42.96 48.5879 69.2944 38.7681 100.627C27.6882 135.997 31.3586 173.532 49.3453 207.809C65.6657 238.912 90.6626 261.863 120.9 273.649C147.57 284.049 176.1 284.146 203.562 273.795C230.597 263.604 251.304 242.901 263.72 222.351C273.085 206.855 278.519 189.285 279.496 171.478L279.483 171.492Z" fill="url(#paint0_linear_121_29)"/>
<path d="M156.343 59.6645C156.484 55.134 153.083 51.349 148.746 51.2104C144.409 51.0719 140.778 54.6322 140.636 59.1628C140.495 63.6933 143.896 67.4783 148.233 67.6168C152.57 67.7554 156.201 64.195 156.343 59.6645Z" fill="url(#paint1_linear_121_29)"/>
<path d="M107.293 103.648C102.955 103.509 99.3256 107.073 99.181 111.598C99.0433 116.123 102.445 119.91 106.783 120.049C111.122 120.188 114.751 116.624 114.895 112.099C115.04 107.574 111.631 103.788 107.293 103.648ZM107.293 103.648C102.955 103.509 99.3256 107.073 99.181 111.598C99.0433 116.123 102.445 119.91 106.783 120.049C111.122 120.188 114.751 116.624 114.895 112.099C115.04 107.574 111.631 103.788 107.293 103.648ZM168.332 58.7761C168.202 51.4808 164.29 45.1182 158.52 41.8394C158.134 41.5888 157.748 41.373 157.363 41.2268C152.06 38.6721 145.47 38.6025 138.791 42.4103C136.931 43.4753 135.32 44.9929 134.184 46.8654C130.031 53.5134 129.591 60.3146 131.532 65.9601C132.132 67.6796 132.235 69.5243 131.891 71.2855C131.539 73.1511 130.699 74.9262 129.48 76.4229L119.268 88.9392C117.877 90.6308 116.08 91.8351 114.103 92.4198C112.685 92.8862 111.149 93.0046 109.655 92.7192C105.179 91.8281 100.097 92.5869 94.9116 95.8239C93.9475 96.4434 93.0729 97.1604 92.2948 98.0236C91.9574 98.3508 91.6888 98.6849 91.4134 99.0539C91.1104 99.4507 90.8005 99.9171 90.525 100.39C90.4906 100.425 90.4906 100.495 90.4562 100.523L90.3529 100.725C88.528 103.871 87.5777 107.073 87.2541 110.164C87.1508 111.32 87.1508 112.475 87.2128 113.603C87.261 114.083 87.3092 114.591 87.3987 115.072C87.4538 115.448 87.5089 115.824 87.5915 116.172C87.6191 116.408 87.6741 116.652 87.7292 116.889C87.8188 117.264 87.9014 117.613 88.0185 117.988C88.1355 118.434 88.2801 118.914 88.4661 119.367C88.9137 120.606 89.499 121.817 90.1807 122.931C90.2083 123.001 90.2771 123.035 90.3047 123.105C90.8969 124.045 91.5167 124.95 92.2741 125.757C95.5864 129.44 100.241 131.8 105.489 131.974L109.138 132.092C109.689 132.113 110.247 132.162 110.764 132.245C113.814 132.788 116.534 134.507 118.407 137.125L127.194 149.363C128.227 150.755 128.895 152.412 129.17 154.096C129.563 156.053 129.405 158.092 128.599 159.937C126.306 165.45 126.32 172.265 130.052 179.164C131.071 181.071 132.586 182.721 134.376 183.904C134.824 184.19 135.306 184.482 135.754 184.768C136.236 185.018 136.683 185.276 137.165 185.492C137.647 185.742 138.129 185.93 138.584 186.118C152.019 191.555 164.896 181.371 164.965 167.81C164.999 167.775 164.999 167.74 164.965 167.671C164.965 167.671 164.999 167.636 164.965 167.601C164.965 167.601 164.999 167.566 164.965 167.532C164.937 164.155 164.104 160.591 162.293 156.985C161.308 155.078 159.89 153.4 158.203 152.189C153.224 148.625 148.232 147.546 143.68 148.152C141.717 148.395 139.768 147.991 138.067 147.052C136.621 146.293 135.354 145.158 134.356 143.766L124.915 130.623C123.634 128.848 122.883 126.711 122.753 124.56V124.525C122.67 122.987 122.911 121.462 123.517 120.021C124.467 117.801 124.997 115.364 125.08 112.781C125.163 110.227 124.777 107.762 123.971 105.486C123.407 103.801 123.297 102.026 123.579 100.328C123.903 98.3926 124.777 96.513 126.03 94.9885L136.277 82.4722C137.565 80.9129 139.231 79.7016 141.049 79.0821C142.571 78.5182 144.238 78.3651 145.856 78.6922C150.366 79.5833 155.414 78.8245 160.599 75.5875C162.362 74.4877 163.884 72.9005 164.979 71.0627C166.907 67.784 167.961 64.4774 168.284 61.2891C168.325 61.0177 168.332 60.7114 168.346 60.4399V60.238C168.367 59.7646 168.346 59.2495 168.332 58.804V58.7761ZM145.622 150.929C153.837 151.194 160.234 158.343 159.966 166.919C159.697 175.46 152.866 182.192 144.651 181.934C136.435 181.677 130.038 174.521 130.3 165.972C130.568 157.396 137.434 150.665 145.615 150.922L145.622 150.929ZM106.549 127.337C98.3684 127.08 91.9367 119.924 92.1984 111.375C92.467 102.799 99.3325 96.0675 107.513 96.3251C115.729 96.5896 122.16 103.739 121.892 112.322C121.623 120.905 114.758 127.595 106.542 127.337H106.549ZM147.99 74.9262C139.81 74.6686 133.378 67.5125 133.647 58.9362C133.915 50.3948 140.781 43.6633 148.961 43.9208C157.177 44.1854 163.574 51.3346 163.312 59.883C163.044 68.4592 156.213 75.1907 147.997 74.9332L147.99 74.9262ZM144.885 174.618C149.223 174.757 152.852 171.228 152.997 166.696C153.141 162.165 149.733 158.385 145.394 158.245C141.056 158.106 137.427 161.67 137.282 166.195C137.145 170.72 140.546 174.479 144.885 174.611V174.618ZM107.293 103.648C102.955 103.509 99.3256 107.073 99.181 111.598C99.0433 116.123 102.445 119.91 106.783 120.049C111.122 120.188 114.751 116.624 114.895 112.099C115.04 107.574 111.631 103.788 107.293 103.648Z" fill="url(#paint2_linear_121_29)"/>
<path d="M220.433 186.625C221.349 182.09 218.004 177.57 212.963 176.529C207.921 175.488 203.092 178.321 202.175 182.857C201.259 187.392 204.604 191.912 209.646 192.953C214.687 193.993 219.517 191.16 220.433 186.625Z" fill="url(#paint3_linear_121_29)"/>
<path d="M174.557 111.319C169.524 110.282 164.689 113.115 163.774 117.647C162.858 122.179 166.204 126.703 171.238 127.741C176.272 128.778 181.106 125.945 182.022 121.413C182.938 116.881 179.591 112.356 174.557 111.319ZM174.557 111.319C169.524 110.282 164.689 113.115 163.774 117.647C162.858 122.179 166.204 126.703 171.238 127.741C176.272 128.778 181.106 125.945 182.022 121.413C182.938 116.881 179.591 112.356 174.557 111.319ZM152.473 220.604C147.439 219.566 142.605 222.4 141.689 226.931C140.774 231.463 144.127 235.953 149.161 236.997C154.195 238.035 159.022 235.236 159.938 230.704C160.854 226.173 157.507 221.648 152.473 220.611V220.604ZM174.557 111.319C169.524 110.282 164.689 113.115 163.774 117.647C162.858 122.179 166.204 126.703 171.238 127.741C176.272 128.778 181.106 125.945 182.022 121.413C182.938 116.881 179.591 112.356 174.557 111.319ZM152.473 220.604C147.439 219.566 142.605 222.4 141.689 226.931C140.774 231.463 144.127 235.953 149.161 236.997C154.195 238.035 159.022 235.236 159.938 230.704C160.854 226.173 157.507 221.648 152.473 220.611V220.604ZM174.557 111.319C169.524 110.282 164.689 113.115 163.774 117.647C162.858 122.179 166.204 126.703 171.238 127.741C176.272 128.778 181.106 125.945 182.022 121.413C182.938 116.881 179.591 112.356 174.557 111.319ZM214.828 164.823L210.586 163.946C209.98 163.821 209.381 163.661 208.789 163.466C205.311 162.324 202.35 160.006 200.594 156.978L192.379 142.784C190.499 139.589 190.279 135.816 191.966 132.725C192 132.732 192.007 132.697 191.979 132.655C192.152 132.37 192.282 132.112 192.496 131.841C196.084 126.759 197.234 119.895 194.025 112.168C193.116 110.031 191.621 108.054 189.769 106.495C170.57 90.6373 144.286 105.91 152.721 127.81C153.506 129.961 154.89 131.917 156.701 133.498C161.88 138.12 167.561 140.285 172.939 140.612C173.518 140.661 174.103 140.709 174.668 140.828C178.262 141.573 181.382 143.919 183.138 146.94L191.938 162.143C193.488 164.809 193.901 167.837 193.074 170.58C192.778 171.478 192.372 172.313 191.814 173.121C190.375 175.168 189.314 177.5 188.791 180.096C188.275 182.651 188.35 185.22 188.874 187.677C189.08 188.61 189.115 189.605 189.039 190.552C188.75 193.364 187.187 196.023 184.728 197.826L170.736 208.317C168.415 210.036 165.468 210.955 162.465 210.795C161.253 210.76 160.069 210.552 158.891 210.127C153.816 208.296 147.763 208.004 141.201 210.204C138.921 210.941 136.89 212.222 135.333 213.858C119.075 230.663 137.33 255.131 161.143 248.156C161.728 247.996 162.279 247.787 162.844 247.551C162.927 247.53 163.009 247.516 163.057 247.453C163.443 247.286 163.801 247.077 164.159 246.861C165.137 246.318 166.053 245.692 166.865 244.968C167.003 244.857 167.148 244.745 167.251 244.62C167.292 244.592 167.306 244.522 167.354 244.502C167.403 244.481 167.403 244.439 167.451 244.418C173.235 238.619 174.785 231.943 173.469 225.957C173.304 225.212 173.228 224.418 173.27 223.646V223.611C173.38 220.576 175.012 217.756 177.615 215.807L191.649 205.324C193.921 203.625 196.834 202.699 199.809 202.818C201.021 202.852 202.274 203.117 203.486 203.542C208.561 205.372 214.587 205.623 221.184 203.43C223.463 202.692 225.495 201.411 227.092 199.755C239.976 186.368 231.031 168.158 214.821 164.809L214.828 164.823ZM169.765 135.036C160.22 133.066 153.899 124.518 155.627 115.962C157.362 107.372 166.487 102.054 176.031 104.024C185.575 105.994 191.862 114.5 190.127 123.084C188.399 131.639 179.268 136.992 169.765 135.029V135.036ZM147.68 244.321C138.136 242.351 131.815 233.802 133.543 225.247C135.271 216.691 144.409 211.303 153.954 213.273C163.457 215.237 169.778 223.785 168.043 232.368C166.308 240.951 157.183 246.277 147.68 244.314V244.321ZM208.183 200.263C198.638 198.293 192.317 189.744 194.045 181.189C195.781 172.599 204.912 167.246 214.456 169.216C223.959 171.179 230.281 179.727 228.545 188.31C226.817 196.866 217.686 202.219 208.183 200.256V200.263ZM174.557 111.319C169.524 110.282 164.689 113.115 163.774 117.647C162.858 122.179 166.204 126.703 171.238 127.741C176.272 128.778 181.106 125.945 182.022 121.413C182.938 116.881 179.591 112.356 174.557 111.319ZM152.473 220.604C147.439 219.566 142.605 222.4 141.689 226.931C140.774 231.463 144.127 235.953 149.161 236.997C154.195 238.035 159.022 235.236 159.938 230.704C160.854 226.173 157.507 221.648 152.473 220.611V220.604ZM174.557 111.319C169.524 110.282 164.689 113.115 163.774 117.647C162.858 122.179 166.204 126.703 171.238 127.741C176.272 128.778 181.106 125.945 182.022 121.413C182.938 116.881 179.591 112.356 174.557 111.319ZM152.473 220.604C147.439 219.566 142.605 222.4 141.689 226.931C140.774 231.463 144.127 235.953 149.161 236.997C154.195 238.035 159.022 235.236 159.938 230.704C160.854 226.173 157.507 221.648 152.473 220.611V220.604ZM174.557 111.319C169.524 110.282 164.689 113.115 163.774 117.647C162.858 122.179 166.204 126.703 171.238 127.741C176.272 128.778 181.106 125.945 182.022 121.413C182.938 116.881 179.591 112.356 174.557 111.319ZM152.473 220.604C147.439 219.566 142.605 222.4 141.689 226.931C140.774 231.463 144.127 235.953 149.161 236.997C154.195 238.035 159.022 235.236 159.938 230.704C160.854 226.173 157.507 221.648 152.473 220.611V220.604ZM174.557 111.319C169.524 110.282 164.689 113.115 163.774 117.647C162.858 122.179 166.204 126.703 171.238 127.741C176.272 128.778 181.106 125.945 182.022 121.413C182.938 116.881 179.591 112.356 174.557 111.319ZM174.557 111.319C169.524 110.282 164.689 113.115 163.774 117.647C162.858 122.179 166.204 126.703 171.238 127.741C176.272 128.778 181.106 125.945 182.022 121.413C182.938 116.881 179.591 112.356 174.557 111.319Z" fill="url(#paint4_linear_121_29)"/>
<defs>
<linearGradient id="paint0_linear_121_29" x1="0.50142" y1="149.773" x2="307" y2="149.773" gradientUnits="userSpaceOnUse">
<stop stop-color="#6285B7"/>
<stop offset="1" stop-color="#1AAE8C"/>
</linearGradient>
<linearGradient id="paint1_linear_121_29" x1="147.495" y1="58.5058" x2="161.027" y2="66.7409" gradientUnits="userSpaceOnUse">
<stop stop-color="#6285B7"/>
<stop offset="1" stop-color="#1AAE8C"/>
</linearGradient>
<linearGradient id="paint2_linear_121_29" x1="104.662" y1="86.5939" x2="190.57" y2="138.875" gradientUnits="userSpaceOnUse">
<stop stop-color="#6285B7"/>
<stop offset="1" stop-color="#1AAE8C"/>
</linearGradient>
<linearGradient id="paint3_linear_121_29" x1="215.347" y1="187.956" x2="229.848" y2="199.083" gradientUnits="userSpaceOnUse">
<stop stop-color="#6285B7"/>
<stop offset="1" stop-color="#1AAE8C"/>
</linearGradient>
<linearGradient id="paint4_linear_121_29" x1="135.146" y1="152.869" x2="227.188" y2="223.521" gradientUnits="userSpaceOnUse">
<stop stop-color="#6285B7"/>
<stop offset="1" stop-color="#1AAE8C"/>
</linearGradient>
</defs>
</svg>
